 <svg version="1.0" xmlns="http://www.w3.org/2000/svg" width="700.000000pt" height="210.000000pt" viewBox="0 0 700.000000 210.000000" preserveAspectRatio="xMidYMid meet">
<metadata>
Created by potrace 1.12, written by Peter Selinger 2001-2015
</metadata>
<g transform="translate(0.000000,210.000000) scale(0.100000,-0.100000)" fill="#000000" stroke="none">
<path d="M0 1050 l0 -1050 2848 1 c1566 1 2838 3 2827 6 -45 11 -87 37 -100
64 -22 42 -19 101 7 134 60 77 219 73 268 -7 46 -76 2 -166 -93 -188 -19 -5
22 -8 108 -8 77 1 130 3 118 5 -43 8 -63 49 -63 124 0 62 -2 69 -20 69 -16 0
-20 7 -20 30 0 23 4 30 20 30 15 0 20 7 20 24 0 29 3 31 53 40 l37 7 0 -36 c0
-33 2 -35 35 -35 32 0 35 -2 35 -29 0 -26 -4 -30 -32 -33 -31 -3 -33 -6 -36
-45 -4 -54 11 -83 43 -83 21 0 25 -5 25 -29 0 -23 -5 -31 -22 -34 -13 -2 22
-4 77 -5 62 0 88 3 70 7 -68 17 -105 52 -111 108 -7 49 21 100 67 125 43 23
122 24 160 1 33 -20 62 -73 57 -106 -3 -21 -9 -22 -95 -25 -51 -1 -93 -7 -93
-12 0 -18 39 -30 99 -30 52 0 61 -3 66 -21 9 -27 3 -31 -48 -40 -23 -3 123 -7
326 -8 202 0 367 3 367 7 0 4 -60 8 -132 7 l-133 0 -3 33 c-3 28 -7 32 -33 32
-27 0 -29 3 -29 35 0 32 2 35 30 35 27 0 30 3 30 30 0 28 3 30 35 30 32 0 35
-2 35 -30 0 -27 -3 -30 -30 -30 -28 0 -30 -3 -30 -35 0 -33 2 -35 35 -35 33 0
35 2 35 35 0 33 2 35 35 35 32 0 35 2 35 30 0 28 -3 30 -34 30 -32 0 -35 3
-38 33 l-3 32 -72 3 -73 3 0 29 c0 27 -3 30 -30 30 -28 0 -30 3 -30 35 0 32 2
35 30 35 27 0 30 3 30 30 0 27 -3 30 -29 30 -25 0 -30 -4 -33 -27 -3 -27 -5
-28 -70 -31 l-68 -3 0 -34 c0 -33 -2 -35 -35 -35 -32 0 -35 -2 -35 -30 0 -28
-2 -30 -40 -30 -38 0 -40 2 -40 30 0 28 3 30 34 30 32 0 35 3 38 33 3 28 7 33
37 37 28 4 34 10 37 32 2 24 -1 27 -34 30 -33 3 -36 6 -37 33 l0 30 73 3 72 3
0 -31 c0 -28 3 -30 35 -30 32 0 35 2 35 30 0 28 3 30 35 30 33 0 35 2 35 35
l0 35 65 0 65 0 0 30 c0 28 -3 30 -35 30 -33 0 -35 2 -35 35 0 32 -2 35 -30
35 -28 0 -30 -3 -30 -35 0 -34 -1 -35 -40 -35 -39 0 -40 1 -40 35 0 32 -2 35
-30 35 l-30 0 0 -65 0 -65 -40 0 c-38 0 -40 2 -40 30 0 28 -3 30 -35 30 -33 0
-35 2 -35 35 l0 35 69 0 70 0 3 33 c3 29 6 32 38 32 32 0 35 -3 38 -32 3 -29
7 -33 32 -33 25 0 29 4 32 32 3 28 7 32 33 32 26 0 31 4 35 30 l5 31 133 3
132 3 0 614 0 615 -3500 0 -3500 0 0 -1050z m1480 1025 c205 -25 459 -133 635
-270 199 -156 332 -328 495 -640 83 -161 89 -169 150 -200 117 -59 272 -84
563 -92 l227 -6 0 -29 c0 -25 -3 -28 -35 -28 -33 0 -35 -2 -35 -35 0 -33 -2
-35 -35 -35 -33 0 -35 -2 -35 -35 0 -33 2 -35 34 -35 32 0 35 -3 38 -32 l3
-32 68 3 67 2 0 -35 c0 -34 -2 -36 -35 -36 -32 0 -35 -2 -35 -30 0 -29 0 -29
-67 -32 l-68 -3 -3 -32 -3 -33 70 0 70 0 3 33 c3 28 7 32 35 35 26 3 32 8 35
29 4 37 20 38 40 3 l17 -30 -29 0 c-28 0 -30 -3 -30 -35 0 -33 2 -35 35 -35
31 0 35 3 35 26 l0 25 33 -23 32 -23 -32 -3 c-29 -3 -33 -7 -33 -33 0 -27 -3
-29 -35 -29 -33 0 -35 -2 -35 -35 l0 -35 -71 0 -70 0 3 -32 c3 -29 7 -33 36
-36 28 -3 32 -7 32 -33 0 -27 3 -29 35 -29 32 0 35 2 35 30 0 21 5 30 16 30
13 0 15 -6 9 -27 -3 -16 -11 -29 -16 -31 -5 -2 -9 -19 -9 -38 0 -32 -2 -34
-35 -34 -32 0 -35 -2 -35 -30 l0 -30 -132 -1 c-222 -2 -319 1 -423 12 -397 41
-715 175 -916 386 -77 81 -120 148 -210 323 -123 243 -201 351 -296 417 -13 8
-20 20 -16 26 3 5 2 8 -3 4 -5 -3 -18 2 -29 10 -13 10 -14 14 -4 10 13 -4 14
1 8 36 -14 75 -31 142 -39 147 -4 3 -15 58 -25 123 -12 72 -23 117 -30 117 -8
0 -14 30 -18 82 -4 45 -11 86 -17 92 -5 5 -10 23 -10 38 0 16 -6 41 -14 56 -8
15 -17 53 -21 85 -6 43 -11 57 -24 57 -14 0 -14 2 -1 10 12 8 10 10 -10 11
-21 1 -22 2 -5 6 11 3 25 9 30 15 6 5 28 7 50 4 22 -3 60 -8 85 -11z m2138
-1302 c3 -32 2 -33 -32 -33 -33 0 -36 3 -36 28 0 36 8 44 40 40 20 -2 26 -9
28 -35z m-70 -71 c3 -30 1 -32 -27 -32 -29 0 -31 3 -31 34 0 32 2 35 28 33 23
-2 27 -7 30 -35z m83 -9 c-9 -16 -10 -15 -11 8 0 14 3 29 8 33 12 12 14 -22 3
-41z m199 -53 c0 -23 -5 -30 -19 -30 -11 0 -21 9 -24 22 -8 27 -1 38 24 38 14
0 19 -7 19 -30z m128 -39 c7 -1 12 -14 12 -32 0 -28 -2 -30 -32 -27 -22 2 -34
9 -36 21 -6 28 5 46 25 42 10 -2 24 -4 31 -4z m2422 -26 c0 -33 -2 -35 -35
-35 -33 0 -35 2 -35 35 0 33 2 35 35 35 33 0 35 -2 35 -35z m218 -2 c3 -32 2
-33 -32 -33 -35 0 -36 1 -36 36 0 34 1 35 33 32 28 -3 32 -7 35 -35z m-2729
-219 c2 -2 -21 -4 -52 -4 -57 0 -57 0 -57 30 l0 30 53 -26 c28 -15 54 -28 56
-30z m-109 -45 c0 -26 -3 -29 -35 -29 -32 0 -35 3 -35 28 0 37 4 39 40 34 25
-4 30 -9 30 -33z m2840 -34 l0 -65 35 0 c32 0 35 -2 35 -30 0 -28 -3 -30 -35
-30 -33 0 -35 -2 -35 -35 0 -34 -1 -35 -41 -35 -39 0 -40 1 -37 33 3 28 7 32
36 35 28 3 32 7 32 33 l0 29 -70 0 -70 0 0 35 c0 33 2 35 35 35 32 0 35 2 35
30 0 28 2 30 40 30 l40 0 0 -65z m-2670 14 c0 -5 -4 -9 -10 -9 -5 0 -10 7 -10
16 0 8 5 12 10 9 6 -3 10 -10 10 -16z m-100 -49 c0 -28 3 -30 35 -30 24 0 35
-5 35 -14 0 -20 -65 -39 -106 -32 -33 7 -34 8 -34 56 l0 50 35 0 c32 0 35 -2
35 -30z m1490 6 c0 -13 4 -13 28 0 32 16 95 18 123 4 35 -19 49 -64 49 -155
l0 -85 -50 0 -49 0 -3 88 -3 87 -28 3 c-47 6 -57 -12 -57 -99 l0 -79 -50 0
-50 0 0 125 0 125 45 0 c33 0 45 -4 45 -14z m-1635 -36 c3 -5 1 -10 -4 -10 -6
0 -11 5 -11 10 0 6 2 10 4 10 3 0 8 -4 11 -10z"></path>
<path d="M3310 510 c0 -20 5 -30 15 -30 10 0 15 10 15 30 0 20 -5 30 -15 30
-10 0 -15 -10 -15 -30z"></path>
<path d="M3415 138 c-11 -31 2 -53 33 -56 31 -3 32 -2 32 32 0 33 -2 36 -30
36 -17 0 -33 -6 -35 -12z"></path>
<path d="M6810 770 c0 -27 3 -30 30 -30 27 0 30 3 30 30 0 27 -3 30 -30 30
-27 0 -30 -3 -30 -30z"></path>
<path d="M6740 440 l0 -30 65 0 65 0 0 30 0 30 -65 0 -65 0 0 -30z"></path>
<path d="M6670 381 c0 -24 5 -29 30 -33 28 -4 30 -3 30 29 0 30 -3 33 -30 33
-26 0 -30 -3 -30 -29z"></path>
<path d="M6948 393 c-8 -33 3 -53 28 -53 21 0 24 5 24 35 0 30 -3 35 -24 35
-14 0 -25 -7 -28 -17z"></path>
<path d="M6213 200 c-40 -16 -25 -30 30 -30 l52 1 -24 19 c-26 22 -27 22 -58
10z"></path>
<path d="M5670 181 c-14 -27 -13 -84 2 -99 33 -33 98 2 98 53 0 56 -76 90
-100 46z"></path>
</g>
</svg>